<?xml version="1.0" standalone="no"?>
<!DOCTYPE svg PUBLIC "-//W3C//DTD SVG 20010904//EN"
 "http://www.w3.org/TR/2001/REC-SVG-20010904/DTD/svg10.dtd">
<svg version="1.0" xmlns="http://www.w3.org/2000/svg"
 width="1280.000000pt" height="1140.000000pt" viewBox="0 0 1280.000000 1140.000000"
 preserveAspectRatio="xMidYMid meet">

<g transform="translate(0.000000,1140.000000) scale(0.100000,-0.100000)"
fill="#000000" stroke="none">
<path d="M0 5700 l0 -5700 6400 0 6400 0 0 5700 0 5700 -6400 0 -6400 0 0
-5700z m2565 4420 c191 -93 349 -170 350 -170 1 0 155 -75 341 -166 187 -91
384 -188 439 -214 348 -167 752 -369 761 -381 6 -8 61 -162 122 -344 62 -181
160 -472 218 -645 58 -173 227 -675 375 -1115 369 -1095 372 -1105 379 -1105
3 0 33 82 67 183 33 100 120 355 193 567 72 212 160 468 195 570 35 102 93
273 130 380 36 107 79 233 95 280 16 47 75 218 130 380 56 162 135 392 175
510 116 340 110 325 132 328 17 3 25 -14 60 -120 22 -68 107 -316 188 -553 81
-236 182 -533 225 -660 111 -324 206 -605 375 -1100 81 -236 171 -504 202
-595 30 -91 58 -168 62 -172 3 -4 37 84 75 195 60 177 487 1444 673 1997 262
779 344 1015 355 1026 7 7 150 78 318 159 488 236 595 288 775 375 94 45 292
141 440 212 149 72 357 173 464 224 107 52 195 93 197 91 4 -3 -84 -49 -446
-234 -168 -86 -381 -195 -475 -243 -559 -287 -1141 -585 -1192 -610 -38 -18
-21 25 -198 -500 -73 -217 -237 -701 -363 -1075 -127 -374 -233 -689 -238
-699 -7 -18 -4 -18 32 4 46 29 748 482 949 614 77 50 212 138 300 195 88 56
246 158 350 226 207 136 273 169 104 53 -59 -40 -208 -143 -333 -228 -124 -85
-318 -218 -431 -295 -112 -77 -297 -203 -410 -280 -113 -77 -294 -201 -402
-276 l-197 -135 -148 -435 c-81 -238 -147 -437 -147 -441 -1 -5 48 -8 107 -8
l108 0 134 66 c74 36 164 80 200 96 36 17 134 64 219 104 85 41 155 73 157 72
1 -2 -73 -46 -164 -97 -307 -175 -477 -273 -486 -281 -10 -10 -23 -2 334 -205
287 -162 377 -218 255 -157 -33 16 -91 44 -130 62 -38 18 -131 62 -205 97
-357 171 -305 153 -425 153 -81 0 -106 -3 -103 -12 3 -7 70 -206 149 -442
l144 -429 55 -39 c30 -22 165 -115 300 -206 244 -167 434 -297 625 -428 55
-37 157 -107 226 -154 434 -295 666 -455 664 -458 -5 -6 -56 25 -285 175 -267
175 -388 254 -650 423 -107 69 -240 155 -295 191 -55 36 -134 87 -175 114 -41
27 -138 89 -215 140 -169 110 -215 138 -215 131 0 -2 5 -17 11 -33 12 -31 412
-1213 623 -1841 l132 -393 229 -118 c127 -64 383 -195 570 -290 187 -96 408
-208 490 -251 137 -71 521 -267 789 -404 61 -31 115 -61 120 -67 6 -6 -7 -2
-29 9 -22 11 -87 42 -145 70 -101 47 -350 168 -1025 494 -170 83 -364 177
-430 208 -425 204 -614 300 -623 317 -5 10 -28 72 -50 138 -22 66 -167 496
-322 955 -155 459 -323 959 -374 1110 -279 828 -339 1005 -341 1008 -1 1 -25
-64 -53 -145 -27 -81 -75 -220 -105 -308 -86 -248 -414 -1205 -462 -1345 -23
-69 -73 -213 -110 -320 -78 -227 -160 -468 -215 -630 -121 -355 -158 -455
-171 -458 -10 -2 -37 63 -93 225 -43 125 -127 372 -188 548 -60 176 -161 471
-225 655 -142 416 -219 639 -242 710 -17 49 -184 537 -321 935 -42 123 -49
137 -58 115 -10 -26 -40 -116 -293 -865 -845 -2510 -792 -2355 -808 -2355 -5
0 -143 -66 -307 -146 -295 -145 -1126 -548 -1379 -669 -71 -35 -224 -108 -339
-164 -115 -56 -211 -99 -214 -96 -7 7 -32 -6 383 205 209 106 443 225 520 265
77 40 318 163 535 273 804 408 762 386 778 429 13 38 178 525 556 1646 107
317 190 577 185 577 -5 0 -22 -9 -37 -19 -15 -11 -88 -58 -162 -106 -215 -139
-360 -233 -512 -332 -77 -51 -202 -132 -277 -180 -75 -47 -185 -119 -246 -158
-60 -40 -163 -106 -227 -149 -65 -42 -170 -110 -233 -151 -63 -41 -120 -75
-127 -75 -6 0 63 50 153 111 160 109 292 199 474 324 50 34 221 151 380 260
160 109 331 226 380 260 133 91 405 276 446 303 35 23 38 32 182 460 81 240
147 440 147 445 0 11 -198 9 -218 -3 -9 -5 -57 -28 -107 -51 -49 -23 -202 -92
-338 -155 -136 -63 -251 -114 -255 -114 -7 0 57 36 428 240 124 68 229 126
233 130 4 4 -65 47 -155 95 -90 49 -179 97 -198 108 -19 11 -92 51 -162 89
-125 68 -162 93 -95 64 17 -7 175 -79 349 -159 l317 -146 100 -3 c63 -2 101 1
101 7 0 6 -66 206 -147 446 l-147 435 -109 75 c-61 41 -215 146 -343 234 -597
409 -868 594 -1099 751 -274 186 -328 224 -318 224 6 0 97 -57 204 -126 107
-69 240 -156 296 -193 56 -36 151 -97 210 -136 59 -38 178 -114 263 -170 559
-363 855 -553 857 -551 2 2 -48 155 -112 342 -63 186 -223 661 -356 1054 -132
393 -253 750 -267 793 l-27 79 -295 150 c-162 82 -540 274 -840 426 -300 152
-662 336 -805 408 -230 118 -291 154 -257 154 6 0 166 -76 357 -170z"/>
<path d="M6639 9035 c-4 -5 -13 -32 -22 -60 -36 -115 -220 -684 -237 -735 -10
-30 -40 -120 -65 -200 -25 -80 -70 -219 -100 -310 -29 -91 -98 -304 -153 -475
-55 -170 -137 -424 -182 -563 -45 -139 -80 -255 -77 -258 3 -3 193 -131 423
-284 l419 -279 3 795 c3 1090 -2 2381 -9 2369z"/>
<path d="M6691 8605 c-1 -242 -4 -957 -8 -1589 -5 -987 -4 -1148 8 -1141 37
22 826 548 836 559 10 9 1 46 -41 176 -58 177 -164 501 -269 825 -165 507
-334 1026 -425 1305 l-100 305 -1 -440z"/>
<path d="M5787 6403 c-2 -4 -32 -93 -65 -198 -33 -104 -73 -230 -90 -280 l-29
-89 22 -71 c76 -242 158 -485 163 -485 4 0 197 127 429 281 416 277 422 282
400 299 -12 9 -197 133 -412 275 -214 142 -395 262 -402 267 -6 5 -13 5 -16 1z"/>
<path d="M7126 6135 c-224 -150 -413 -278 -418 -283 -7 -7 127 -102 411 -291
231 -155 424 -281 429 -281 4 0 21 42 37 93 15 50 55 171 87 267 32 96 58 185
58 197 0 12 -30 113 -66 225 -103 317 -112 342 -121 345 -4 1 -192 -121 -417
-272z"/>
<path d="M6220 5535 c-234 -156 -424 -288 -424 -292 2 -10 113 -361 199 -623
35 -107 109 -337 165 -510 172 -533 315 -973 403 -1245 l85 -260 1 1608 c1
884 0 1607 -1 1606 -2 0 -194 -128 -428 -284z"/>
<path d="M6680 4215 c0 -877 2 -1595 5 -1595 2 0 54 154 115 343 156 478 239
733 260 797 10 30 69 210 130 400 61 190 120 370 130 400 46 138 220 677 220
683 0 9 -837 567 -850 567 -7 0 -10 -529 -10 -1595z"/>
</g>
</svg>
